<svg id="Layer_1" data-name="Layer 1" xmlns="http://www.w3.org/2000/svg" xmlns:xlink="http://www.w3.org/1999/xlink" viewBox="0 0 792 612"><defs><style>.cls-1{fill:#1e1e1e;}.cls-2{fill:url(#linear-gradient);}.cls-3{fill:#684800;}.cls-4{fill:url(#linear-gradient-2);}.cls-5{fill:url(#linear-gradient-3);}.cls-6{fill:url(#linear-gradient-4);}.cls-7{fill:url(#linear-gradient-5);}.cls-8{fill:url(#linear-gradient-6);}.cls-9{fill:url(#linear-gradient-7);}.cls-10{fill:url(#linear-gradient-8);}.cls-11{fill:url(#linear-gradient-9);}</style><linearGradient id="linear-gradient" x1="401.64" y1="56.25" x2="529.96" y2="56.25" gradientTransform="matrix(1, 0, 0, -1, 0, 614)" gradientUnits="userSpaceOnUse"><stop offset="0.01" stop-color="#aa8900"/><stop offset="0.47" stop-color="#d4a600"/><stop offset="0.97" stop-color="#986300"/><stop offset="1" stop-color="#945f00"/></linearGradient><linearGradient id="linear-gradient-2" x1="562.47" y1="105.37" x2="584.16" y2="105.37" xlink:href="#linear-gradient"/><linearGradient id="linear-gradient-3" x1="536.65" y1="100.79" x2="562.53" y2="100.79" xlink:href="#linear-gradient"/><linearGradient id="linear-gradient-4" x1="529.9" y1="94.63" x2="534.46" y2="94.63" xlink:href="#linear-gradient"/><linearGradient id="linear-gradient-5" x1="534.4" y1="96.3" x2="535.58" y2="96.3" xlink:href="#linear-gradient"/><linearGradient id="linear-gradient-6" x1="229.68" y1="239.02" x2="371.39" y2="239.02" xlink:href="#linear-gradient"/><linearGradient id="linear-gradient-7" x1="282.72" y1="156.15" x2="312.05" y2="156.15" xlink:href="#linear-gradient"/><linearGradient id="linear-gradient-8" x1="300.39" y1="130.74" x2="334.95" y2="130.74" xlink:href="#linear-gradient"/><linearGradient id="linear-gradient-9" x1="241.16" y1="507.69" x2="648.08" y2="507.69" xlink:href="#linear-gradient"/></defs><path class="cls-1" d="M437.15,203.68,240.47,91.94c1.73-1.3,2.87-2.34,4.17-3.11C287.11,64,329.54,39,372.14,14.37c15.12-8.74,31.1-9.06,46.8-1.4,11.42,5.59,22.55,11.78,33.65,18Q544.84,82.69,637,134.5a21.8,21.8,0,0,1,9.18,9.06c3.3,6.36,2.27,11.63-3.27,16.11a44.27,44.27,0,0,1-5.23,3.41c-13.13,7.7-26.34,15.27-39.4,23.1-12.39,7.42-25.56,8.5-39.06,4.65a77.88,77.88,0,0,1-17.56-7.94Q464,137.29,386.46,91.36a23.89,23.89,0,0,0-14.3-3.62c-1.36.11-2.66.74-5.49,1.58,11.53,7.77,22.66,13.74,33.39,20.27s21.47,12.86,32.26,19.22c10.95,6.46,22,12.82,32.94,19.27,10.79,6.35,21.52,12.76,32.29,19.14Q514,177,530.37,186.72c10.71,6.38,21.45,12.76,32.77,19.49-2.1,1.4-3.57,2.5-5.13,3.41-39.25,22.93-78.31,46.22-117.84,68.68-28.26,16.05-57.21,16.44-85.76.05q-94.73-54.3-189.35-108.75a56.85,56.85,0,0,1-11.14-8c-7.72-7.38-7-14.77,1.8-20.78,3.09-2.12,6.42-3.86,9.67-5.76,13.86-8.11,27.87-16,41.54-24.39,11.27-6.94,23.16-8.11,35.48-4.59a86.93,86.93,0,0,1,18.28,7.9q78.6,44,157,88.4a23.61,23.61,0,0,0,15,3.11C433.82,205.4,434.85,204.67,437.15,203.68Z"/><path class="cls-1" d="M643.54,320.08c2.27.72,3.84,1.21,5.38,1.71,9.15,3,14,9.39,14.77,18.9.15,1.86.15,3.76.15,5.64,0,22.11.22,44.23,0,66.35-.41,33.89-15.16,59.38-44.87,76.31-62.5,35.64-124.84,71.6-187.28,107.31a57.2,57.2,0,0,1-13.66,6c-10.08,2.66-15.74-1.86-16.22-12.18-.09-2.09-.06-4.17-.06-6.25,0-80.53.12-161.08-.07-241.61-.06-20.2,8.17-35.53,25.24-45.85q46.58-28.18,93.52-55.77c39.17-23.07,78.52-45.86,117.75-68.87,4.46-2.6,9-4.33,14.21-3.79,6.38.65,10.31,4.31,11.18,10.68a52.35,52.35,0,0,1,.32,6.86c0,27.12,0,54.24,0,81.37a93.83,93.83,0,0,1-5.46,31.27A52.89,52.89,0,0,1,643.54,320.08ZM520.25,449.6c-2.63,17.1-6.51,33.3-8.86,49.77l1.18.35,23.71-40.44c8.56,3.94,15.81,9.45,24.82,13.65-.41-2.55-.58-4-.88-5.34-2.36-10.36-4.63-20.74-7.21-31a9.91,9.91,0,0,1,1.24-8.23c6.23-10.36,12.3-20.81,18.38-31.27,1-1.67,1.75-3.46,2.61-5.19l-1-.78-28,15.11c-3.65-13.36-5.77-26.29-9.86-38.75a26.6,26.6,0,0,0-1.84,6.14c-2.42,12.89-5,25.78-7.13,38.73a8.63,8.63,0,0,1-5.15,7.05c-7.8,4-15.44,8.24-23.12,12.44a44.06,44.06,0,0,0-4.17,3C503.77,440,511.82,444.69,520.25,449.6Zm40.87-90.77c-.45-2.91-.58-4.32-.9-5.7-2.36-10.36-4.59-20.76-7.21-31.06a9.8,9.8,0,0,1,1.26-8.21c6.34-10.54,12.52-21.18,18.71-31.82.88-1.49,1.49-3.11,2.24-4.67l-.84-.78c-9.26,5-18.55,10-28.24,15.21C543,278.39,540,265.54,537,252.7a17.64,17.64,0,0,0-2.47,6.77c-2.4,12.71-4.93,25.38-7,38.14a9.2,9.2,0,0,1-5.55,7.49c-7.44,3.78-14.73,7.85-22,11.85-1.54.84-3,1.9-5.12,3.3,9,5.24,17.17,10.06,25.58,15-3.07,16.76-6.06,33.16-9.08,49.57l1.34.45,23.83-40.72C544.51,349.23,552.21,353.67,561.12,358.83Z"/><path class="cls-1" d="M390.55,388.7c-62.74-34.56-124.39-68.49-186.87-102.91-.26,2.74-.56,4.51-.56,6.27,0,42.77.17,85.54.13,128.3,0,3.54,1,5.66,4.22,7.44q49.72,27.74,99.28,55.74c1.21.68,2.57,1.15,4.39,1.95.15-2.14.39-3.72.35-5.28-.22-10.29-1.73-20.34-5.54-30C301.13,438,292.54,430.46,279.48,428A89.62,89.62,0,0,1,265,424.16c-18.25-6.79-29.1-20.43-34.16-38.79-4.85-17.63-4.29-35.49-1-53.33a8.63,8.63,0,0,1,1-1.68c1.15,1.9,2.16,3.56,3.14,5.21,11.05,18.66,25,34.34,44.7,44.31a79.39,79.39,0,0,0,31.11,8.71c10.25.65,20.33,2.16,29.87,6.16,22.88,9.61,37.89,27,46.86,49.5,2.85,7.16,3.83,15.47,3.91,23.29.37,40,.2,80.1.15,120.15,0,13.47-6.68,18.23-19.35,13.88a56.76,56.76,0,0,1-9.58-4.56q-95-54.43-189.93-109c-29-16.69-43.06-42.38-43.36-75.32-.45-48.41-.11-96.79-.11-145.19q0-40.38,0-80.74a50.85,50.85,0,0,1,.57-8.72c1.08-6.1,4.93-9.45,11.09-10,5-.48,9.36,1,13.65,3.5,37.06,21.73,74.23,43.27,111.26,65,31.81,18.72,63.51,37.65,95.25,56.5,2.51,1.49,5,3,7.4,4.67,15.2,10.4,23.24,24.63,23.1,43.27C390.48,356.41,390.55,371.85,390.55,388.7Z"/><path class="cls-1" d="M539.8,423.19l9.37-4.35c-2.6,5-5.89,9-6.66,13.41-.72,4.18,1.2,8.83,2.09,14.06-3.11-1.45-5.62-2.6-8.35-3.89-2.42,3.82-4.71,7.45-7,11.07l-.85-.31c.76-4.6,1.52-9.19,2.34-14.09-2.51-1.74-5-3.47-8-5.56,1.68-1.13,2.87-2.32,4.3-2.86,4.87-1.81,7-5.34,7.48-10.35a21.67,21.67,0,0,1,2.4-8.09C537.75,415.64,538.68,419.06,539.8,423.19Z"/><path class="cls-1" d="M544.71,332l-8.45-4.17c-2.38,3.8-4.74,7.57-7.08,11.35-.3-.11-.58-.2-.88-.32.78-4.59,1.55-9.18,2.4-14.23l-8.28-5.73c2-1.2,3.43-2.47,5.1-3.05,4.56-1.58,6.31-4.89,6.79-9.39.34-3,1.12-6,2-10.45,1.4,5,2.4,8.5,3.57,12.68l8.41-4,.88.61c-1.55,2.74-2.92,5.6-4.69,8.19-2.18,3.14-2.87,6.21-1.51,9.93C543.85,325.83,544,328.56,544.71,332Z"/><path class="cls-2" d="M530,520.48c-2.07,4.31-6.33,5.26-10.23,5.36-5.71.15-11,1.65-16.43,3a17.22,17.22,0,0,1-8.26,0c-5.06-1.19-10.08-2.57-15.31-3-5.71-.44-10,2-12.5,6.79-7.63,14.72-17,28.48-23.47,43.83-2.39,5.66-5.75,10.88-7.2,16.93a70,70,0,0,1-16.75,9.39c-3.59,1.32-7.32,2.61-11.21.82,3.87-6.58,8.85-12.39,13.43-18.47,2.94-3.89,5.3-7.89,6.29-12.82,1.76-8.78,7.27-15,15.25-18.64A21.71,21.71,0,0,0,454.82,542a2.54,2.54,0,0,0,1.12-2.23,2.17,2.17,0,0,0,2.1-2.38,1.11,1.11,0,0,0,.41-.19c.08,0,0-.22.08-.33-.15.18-.32.35-.47.54a2.12,2.12,0,0,0-2.36,2.16,2.49,2.49,0,0,0-1.29,2.1,3.13,3.13,0,0,0-2.43,1.23c-4.45,6.13-11,8.65-18,10.45a15.71,15.71,0,0,0-7.48,4.63c-8.11,8.5-16.35,16.89-24.56,25.32-.5-13.51-.44-27,0-40.52,5.78.08,11.45,1.16,17.17,2a51.27,51.27,0,0,0,29-3.68,16.8,16.8,0,0,0,9.69-11.68c2-8.3,7.53-13.39,14.71-17.26a9.2,9.2,0,0,1,8.49-.21c7.4,3,15,5.77,22.28,9a23.56,23.56,0,0,0,10.85,2C519.52,522.64,525,523.4,530,520.48Z"/><path class="cls-3" d="M402,583.26c8.19-8.43,16.45-16.82,24.56-25.32a15.64,15.64,0,0,1,7.47-4.63c7-1.8,13.51-4.31,18-10.45a3.2,3.2,0,0,1,2.43-1.23l.41.33a21.71,21.71,0,0,1-11.25,11.72c-8,3.69-13.49,9.86-15.26,18.64-1,4.93-3.35,8.93-6.28,12.82-4.58,6.08-9.57,11.87-13.44,18.47-4.91-1.1-6.23-5-6.67-9.17A43.14,43.14,0,0,1,402,583.26Z"/><path class="cls-4" d="M581.9,510.06c-4-2.88-8.25-2.17-12.54-1.08-2.27.58-4.43,1.79-6.89,1.44,6.92-4.39,14.18-4.58,21.69-1.77A4.1,4.1,0,0,1,581.9,510.06Z"/><path class="cls-5" d="M562.53,510.36c-.26,2.38-2.27,2.66-4,3.29A32.18,32.18,0,0,1,545,516c-2.77-.21-5.56,0-8.36,0,1.31-2.64,3.8-2,5.88-1.91A39.23,39.23,0,0,0,562.53,510.36Z"/><path class="cls-6" d="M534.46,518.23a4.52,4.52,0,0,1-4.56,2.29A4.47,4.47,0,0,1,534.46,518.23Z"/><path class="cls-7" d="M535.58,517.11l-1.18,1.17A1.27,1.27,0,0,1,535.58,517.11Z"/><path class="cls-8" d="M232,341.69c-1.62-2-1-4.78-2.21-6.94-.11-1.43-.28-2.9,1.75-3.14a144.6,144.6,0,0,0,17.59,25.08,99.08,99.08,0,0,0,44.35,29.11A43.48,43.48,0,0,0,304.74,388c14.06.67,27.87,2.45,40.59,9.17,10.1,5.32,19,12.11,26.06,21.17a6.2,6.2,0,0,1-4.59-1.59c-7-5.17-15-8.05-23.38-10.21-15.35-3.94-31-6.34-46.49-9.67-15.83-3.41-29.88-10.34-41.78-21.58-9.66-9.1-16.13-20.18-21.43-32.13C233.38,342.38,233.76,340.67,232,341.69Z"/><path class="cls-3" d="M379.28,430.35a83.59,83.59,0,0,0-21.69-16,4.72,4.72,0,0,0-4.48-1.19C342,406.6,329.61,404.7,317.19,403c-8.71-1.17-17.53-1.58-26.2-3-28.46-4.56-46.11-21.95-56.1-48.13A48.89,48.89,0,0,1,232,341.69c1.81-1,1.42.69,1.75,1.44,5.3,11.94,11.79,23,21.43,32.12a85.74,85.74,0,0,0,41.78,21.58c15.48,3.33,31.14,5.71,46.49,9.67,8.39,2.16,16.37,5,23.38,10.22a6.21,6.21,0,0,0,4.59,1.58C374.89,421.74,377.89,425.51,379.28,430.35Z"/><path class="cls-9" d="M282.72,428.38c4,.15,7.53,2.16,11.29,3.29a3.61,3.61,0,0,1,2.73,3.09c-2.08,1.38-.65,2.53.34,3.5,6,5.91,9,13.35,11.49,21.26,2.94,9.15,4.3,18.29,3,27.81-2.38-.45-4.63-1.1-6-3.35.39-9.09-1.06-18-3-26.84C299.89,445,294.08,434.69,282.72,428.38Z"/><path class="cls-10" d="M335,530.34c-3.18-2.48-3.53-6.42-5-9.77a112.84,112.84,0,0,1-3.85-11.2,2.35,2.35,0,0,0-2.68-2,53.43,53.43,0,0,1,.13-6.94c.54-3.79-.91-6.47-4-8.48-.4-2.9-1-5.78-1.2-8.71-.47-7.38-1.53-14.56-5.38-21.09a27.23,27.23,0,0,1-3.66-10.66,15,15,0,0,0-5.49-10.27c-1.57-1.28-3.5-2.51-3.48-5,1.88-.39,3.33.69,4.63,1.67,13.38,10.12,21.56,23.18,22.19,40.31a121.15,121.15,0,0,1-.29,14.64c-.88,10.44,1.41,20.19,5.69,29.62C333.72,525,335,527.47,335,530.34Z"/><path class="cls-3" d="M300.39,436.23c0,2.47,1.91,3.7,3.48,5a15,15,0,0,1,5.49,10.26A26.86,26.86,0,0,0,313,462.14c3.85,6.53,4.91,13.71,5.38,21.1.18,2.92.8,5.8,1.2,8.7-3.44-.24-5.72-2.49-8.07-4.63,1.34-9.52,0-18.66-3-27.81-2.53-7.89-5.47-15.35-11.49-21.26-1-1-2.42-2.12-.34-3.5.36.08.73.13,1.08.21a2.52,2.52,0,0,0,2.61,1.22Z"/><polygon class="cls-1" points="256.32 455.17 344.38 504.52 345.74 525.26 344.38 533.67 294.83 533.5 274.08 500.05 256.32 455.17"/><path class="cls-1" d="M277.28,427.54s41.58,7.35,49,42.45S344,463.37,344,463.37l-6.95-24L307.66,417.7H290Z"/><path class="cls-1" d="M380.15,431s-14.67-18.92-49.4-25.87-34.27,9.35-34.27,9.35l30.71,13.86,23.13,7.78Z"/><path class="cls-11" d="M435.59,205.13c.76-2.92-1.69-3.42-3.39-4.39q-17.35-9.9-34.75-19.75-76.31-43.31-152.63-86.63c-1.24-.71-2.47-1.51-3.66-2.23.2-2.31,2.18-2.53,3.5-3.3,42.6-24.92,85.12-49.94,127.87-74.59,15.34-8.86,31.58-8.84,47.3-.87,16,8.09,31.63,16.81,47.23,25.57q83.13,46.55,166.14,93.27c4.91,2.76,9.86,5.31,12.71,10.63,3.64,6.82,2.82,12.27-3.33,17a71.72,71.72,0,0,1-7.93,5c-11.68,6.83-23.49,13.45-35.08,20.43-16.61,10-33.52,9.8-50.56,1.62-10.51-5.06-20-12-30-17.88q-66-38.62-132-77.33c-7.28-4.26-12.13-4.84-18.27-2.55-.43,2,1.32,2.38,2.44,3.05q38.67,23,77.32,45.91c2.94,1.75,6.37,2.74,8.77,5.38-1.66.58-3.15,1.32-2.83,3.46a31.3,31.3,0,0,0,1.06,5.47,92.65,92.65,0,0,1,4.95,23C461.6,191.72,453.28,203.87,435.59,205.13Z"/></svg>