<svg version="1.2" xmlns="http://www.w3.org/2000/svg" viewBox="0 0 792 612" width="792" height="612">
	<title>logo-new</title>
	<defs>
		<linearGradient id="g1" x2="1" gradientUnits="userSpaceOnUse" gradientTransform="matrix(128.322,0,0,93.521,401.636,557.746)">
			<stop offset=".005" stop-color="#aa8900"/>
			<stop offset=".47" stop-color="#d4a600"/>
			<stop offset=".966" stop-color="#986300"/>
			<stop offset=".996" stop-color="#945f00"/>
		</linearGradient>
		<linearGradient id="g2" x2="1" gradientUnits="userSpaceOnUse" gradientTransform="matrix(21.69,0,0,3.73,562.475,508.63)">
			<stop offset=".005" stop-color="#aa8900"/>
			<stop offset=".47" stop-color="#d4a600"/>
			<stop offset=".966" stop-color="#986300"/>
			<stop offset=".996" stop-color="#945f00"/>
		</linearGradient>
		<linearGradient id="g3" x2="1" gradientUnits="userSpaceOnUse" gradientTransform="matrix(25.876,0,0,5.655,536.655,513.211)">
			<stop offset=".005" stop-color="#aa8900"/>
			<stop offset=".47" stop-color="#d4a600"/>
			<stop offset=".966" stop-color="#986300"/>
			<stop offset=".996" stop-color="#945f00"/>
		</linearGradient>
		<linearGradient id="g4" x2="1" gradientUnits="userSpaceOnUse" gradientTransform="matrix(4.558,0,0,2.338,529.902,519.374)">
			<stop offset=".005" stop-color="#aa8900"/>
			<stop offset=".47" stop-color="#d4a600"/>
			<stop offset=".966" stop-color="#986300"/>
			<stop offset=".996" stop-color="#945f00"/>
		</linearGradient>
		<linearGradient id="g5" x2="1" gradientUnits="userSpaceOnUse" gradientTransform="matrix(1.18,0,0,1.18,534.404,517.698)">
			<stop offset=".005" stop-color="#aa8900"/>
			<stop offset=".47" stop-color="#d4a600"/>
			<stop offset=".966" stop-color="#986300"/>
			<stop offset=".996" stop-color="#945f00"/>
		</linearGradient>
		<linearGradient id="g6" x2="1" gradientUnits="userSpaceOnUse" gradientTransform="matrix(141.715,0,0,86.868,229.679,374.983)">
			<stop offset=".005" stop-color="#aa8900"/>
			<stop offset=".47" stop-color="#d4a600"/>
			<stop offset=".966" stop-color="#986300"/>
			<stop offset=".996" stop-color="#945f00"/>
		</linearGradient>
		<linearGradient id="g7" x2="1" gradientUnits="userSpaceOnUse" gradientTransform="matrix(29.332,0,0,59.089,282.717,457.855)">
			<stop offset=".005" stop-color="#aa8900"/>
			<stop offset=".47" stop-color="#d4a600"/>
			<stop offset=".966" stop-color="#986300"/>
			<stop offset=".996" stop-color="#945f00"/>
		</linearGradient>
		<linearGradient id="g8" x2="1" gradientUnits="userSpaceOnUse" gradientTransform="matrix(34.563,0,0,93.642,300.389,483.262)">
			<stop offset=".005" stop-color="#aa8900"/>
			<stop offset=".47" stop-color="#d4a600"/>
			<stop offset=".966" stop-color="#986300"/>
			<stop offset=".996" stop-color="#945f00"/>
		</linearGradient>
		<linearGradient id="g9" x2="1" gradientUnits="userSpaceOnUse" gradientTransform="matrix(406.923,0,0,197.689,241.16,106.314)">
			<stop offset=".005" stop-color="#aa8900"/>
			<stop offset=".47" stop-color="#d4a600"/>
			<stop offset=".966" stop-color="#986300"/>
			<stop offset=".996" stop-color="#945f00"/>
		</linearGradient>
	</defs>
	<style>
		.s0 { fill: #1e1e1e } 
		.s1 { fill: url(#g1) } 
		.s2 { fill: #684800 } 
		.s3 { fill: url(#g2) } 
		.s4 { fill: url(#g3) } 
		.s5 { fill: url(#g4) } 
		.s6 { fill: url(#g5) } 
		.s7 { fill: url(#g6) } 
		.s8 { fill: url(#g7) } 
		.s9 { fill: url(#g8) } 
		.s10 { fill: url(#g9) } 
	</style>
	<g>
		<g>
			<path class="s0" d="m437.2 203.7c-66-37.5-131-74.4-196.7-111.7 1.7-1.3 2.9-2.3 4.2-3.1 42.4-24.9 84.8-49.9 127.4-74.5 15.1-8.7 31.1-9.1 46.8-1.4 11.4 5.6 22.5 11.8 33.7 18 61.5 34.5 122.9 69 184.4 103.5 4 2.2 7.1 5 9.2 9.1 3.3 6.4 2.3 11.6-3.3 16.1-1.6 1.3-3.4 2.3-5.2 3.4-13.1 7.7-26.3 15.3-39.4 23.1-12.4 7.4-25.6 8.5-39.1 4.7-6.1-1.7-12-4.7-17.6-7.9-51.8-30.4-103.5-61-155.2-91.5-4.4-2.6-9.2-4-14.3-3.6-1.4 0.1-2.7 0.7-5.5 1.6 11.5 7.8 22.7 13.7 33.4 20.3 10.7 6.5 21.5 12.9 32.3 19.2 11 6.5 22 12.8 32.9 19.3 10.8 6.3 21.5 12.8 32.3 19.1 10.9 6.5 21.9 13 32.8 19.5 10.7 6.4 21.4 12.8 32.8 19.5-2.1 1.4-3.6 2.5-5.1 3.4-39.3 22.9-78.3 46.2-117.8 68.7-28.3 16.1-57.2 16.4-85.8 0.1-63.2-36.2-126.3-72.4-189.4-108.7-3.9-2.3-7.9-4.8-11.1-8-7.7-7.4-7-14.8 1.8-20.8 3.1-2.1 6.4-3.9 9.7-5.8 13.9-8.1 27.9-16 41.5-24.4 11.3-6.9 23.2-8.1 35.5-4.6 6.3 1.8 12.5 4.7 18.3 7.9 52.4 29.4 104.7 58.9 157 88.4 4.7 2.7 9.7 3.8 15 3.1 1.1-0.3 2.1-1 4.5-2z"/>
			<path class="s0" d="m643.5 320.1c2.3 0.7 3.8 1.2 5.4 1.7 9.2 3 14 9.4 14.8 18.9 0.1 1.9 0.1 3.8 0.1 5.6 0 22.1 0.2 44.2 0 66.4-0.4 33.9-15.2 59.4-44.9 76.3-62.5 35.6-124.8 71.6-187.3 107.3-4.3 2.5-8.9 4.7-13.7 6-10.1 2.7-15.7-1.9-16.2-12.2-0.1-2.1-0.1-4.2-0.1-6.3 0-80.5 0.1-161.1-0.1-241.6-0.1-20.2 8.2-35.5 25.2-45.9 31-18.8 62.2-37.4 93.5-55.8 39.2-23.1 78.5-45.9 117.8-68.9 4.5-2.6 9-4.3 14.2-3.8 6.4 0.7 10.3 4.3 11.2 10.7 0.3 2.3 0.3 4.6 0.3 6.9 0 27.1 0 54.2 0 81.4 0 10.8-1.9 21.2-5.5 31.3-2.7 8.5-7.7 15.6-14.7 22zm-123.3 129.5c-2.6 17.1-6.5 33.3-8.9 49.8 0.4 0.1 0.8 0.2 1.2 0.4 7.9-13.4 15.7-26.8 23.7-40.4 8.6 3.9 15.8 9.4 24.8 13.7-0.4-2.5-0.6-4-0.9-5.3-2.4-10.4-4.6-20.7-7.2-31-0.8-3.1-0.4-5.5 1.2-8.2 6.2-10.4 12.3-20.8 18.4-31.3 1-1.7 1.7-3.5 2.6-5.2-0.3-0.3-0.6-0.5-1-0.8-9.2 5-18.5 9.9-28.1 15.1-3.6-13.4-5.8-26.3-9.9-38.7-0.9 2.1-1.5 4.1-1.8 6.1-2.4 12.9-5 25.8-7.1 38.7-0.6 3.5-2.1 5.5-5.2 7.1-7.8 4-15.4 8.2-23.1 12.4-1.3 0.7-2.5 1.8-4.2 3 9.1 5 17.1 9.7 25.5 14.6zm40.9-90.8c-0.4-2.9-0.6-4.3-0.9-5.7-2.4-10.4-4.6-20.8-7.2-31.1-0.8-3.1-0.4-5.5 1.3-8.2 6.3-10.5 12.5-21.2 18.7-31.8 0.9-1.5 1.5-3.1 2.2-4.7-0.3-0.3-0.6-0.5-0.8-0.8-9.3 5-18.5 10-28.2 15.2-3.1-13.4-6.2-26.3-9.2-39.1-1.5 2.3-2 4.5-2.5 6.8-2.4 12.7-4.9 25.4-7 38.1-0.6 3.7-2.3 5.8-5.5 7.5-7.4 3.8-14.7 7.9-22 11.8-1.5 0.8-3 1.9-5.1 3.3 9 5.2 17.2 10.1 25.6 15-3.1 16.8-6.1 33.2-9.1 49.6 0.4 0.1 0.9 0.3 1.3 0.4 7.9-13.4 15.7-26.8 23.8-40.7 8 4.8 15.7 9.3 24.6 14.4z"/>
			<path class="s0" d="m390.6 388.7c-62.7-34.6-124.4-68.5-186.9-102.9-0.3 2.7-0.6 4.5-0.6 6.3 0.1 42.8 0.2 85.5 0.1 128.3 0 3.5 1 5.7 4.2 7.4 33.1 18.5 66.2 37.1 99.3 55.7 1.2 0.7 2.6 1.2 4.4 2 0.1-2.1 0.4-3.7 0.4-5.3-0.2-10.3-1.7-20.3-5.5-30-4.8-12.2-13.4-19.8-26.5-22.2-4.9-0.9-9.8-2.1-14.5-3.8-18.2-6.8-29.1-20.4-34.2-38.8-4.9-17.6-4.3-35.5-1-53.3 0.1-0.4 0.4-0.7 1-1.7 1.2 1.9 2.2 3.6 3.1 5.2 11 18.7 25 34.3 44.7 44.3 9.8 5 20.1 8 31.1 8.7 10.2 0.7 20.3 2.2 29.9 6.2 22.9 9.6 37.9 27 46.9 49.5 2.8 7.2 3.8 15.5 3.9 23.3 0.4 40.1 0.2 80.1 0.1 120.2 0 13.5-6.7 18.2-19.3 13.9-3.3-1.1-6.5-2.8-9.6-4.6-63.3-36.3-126.6-72.6-189.9-109-29-16.7-43.1-42.4-43.4-75.3-0.4-48.4-0.1-96.8-0.1-145.2q0-40.4 0-80.7c0-2.9 0.1-5.9 0.6-8.7 1.1-6.1 4.9-9.4 11.1-10 5-0.5 9.4 1 13.7 3.5 37.1 21.7 74.2 43.3 111.3 65.1 31.8 18.7 63.5 37.7 95.2 56.5 2.5 1.5 5 3 7.4 4.7 15.2 10.4 23.2 24.6 23.1 43.3-0.1 15.1 0 30.5 0 47.4z"/>
			<path class="s0" d="m539.8 423.2c3.3-1.5 6-2.8 9.4-4.4-2.6 5-5.9 9-6.7 13.4-0.7 4.2 1.2 8.8 2.1 14.1-3.1-1.5-5.6-2.6-8.4-3.9-2.4 3.8-4.7 7.4-7 11.1q-0.4-0.1-0.9-0.3c0.8-4.6 1.5-9.2 2.3-14.1-2.5-1.7-5-3.5-8-5.6 1.7-1.1 2.9-2.3 4.3-2.9 4.9-1.8 7-5.3 7.5-10.3 0.2-2.7 1-5.3 2.4-8.1 1 3.4 1.9 6.9 3 11z"/>
			<path class="s0" d="m544.7 332c-3.1-1.5-5.5-2.7-8.4-4.2-2.4 3.8-4.7 7.6-7.1 11.3q-0.5-0.1-0.9-0.3c0.8-4.6 1.5-9.2 2.4-14.2-2.6-1.8-5.2-3.6-8.3-5.7 2-1.2 3.4-2.5 5.1-3.1 4.6-1.6 6.3-4.9 6.8-9.4 0.3-3 1.1-6 2-10.5 1.4 5 2.4 8.5 3.6 12.7 3-1.5 5.7-2.8 8.4-4.1q0.4 0.3 0.9 0.6c-1.5 2.7-2.9 5.6-4.7 8.2-2.2 3.1-2.9 6.2-1.5 9.9 0.9 2.6 1 5.4 1.7 8.8z"/>
		</g>
		<path class="s1" d="m530 520.5c-2.1 4.3-6.3 5.3-10.2 5.4-5.7 0.1-11 1.7-16.4 3-2.8 0.7-5.5 0.7-8.3 0-5.1-1.2-10.1-2.6-15.3-3-5.7-0.4-10 2-12.5 6.8-7.6 14.7-17 28.5-23.5 43.8-2.4 5.7-5.7 10.9-7.2 16.9-5.2 3.8-10.7 7.2-16.7 9.4-3.6 1.3-7.3 2.6-11.2 0.8 3.9-6.6 8.9-12.4 13.4-18.5 2.9-3.9 5.3-7.9 6.3-12.8 1.8-8.8 7.3-15 15.3-18.6 5.4-2.5 9-6.4 11.3-11.7 0.8-0.5 1.1-1.3 1.1-2.2q2.1-0.3 2.1-2.4c0.1-0.1 0.3-0.1 0.4-0.2 0.1-0.1 0-0.2 0.1-0.3-0.1 0.2-0.3 0.4-0.5 0.5-1.5 0-2.2 0.8-2.4 2.2-0.9 0.4-1.2 1.2-1.3 2.1-1 0.1-1.9 0.4-2.4 1.2-4.4 6.1-11 8.6-18 10.5-3 0.8-5.3 2.4-7.5 4.6-8.1 8.5-16.4 16.9-24.6 25.3-0.5-13.5-0.4-27 0-40.5 5.8 0.1 11.5 1.2 17.2 2 10 1.5 19.7 0.4 29-3.7 5-2.2 8.4-6.3 9.7-11.7 2-8.3 7.5-13.4 14.7-17.3 2.9-1.6 5.6-1.4 8.5-0.2 7.4 3 15 5.8 22.3 9 3.6 1.6 7.1 2.1 10.8 2 5.3-0.3 10.8 0.5 15.8-2.4z"/>
		<path class="s2" d="m402 583.3c8.2-8.4 16.4-16.8 24.6-25.3 2.1-2.2 4.5-3.9 7.5-4.6 7-1.8 13.5-4.3 18-10.5 0.6-0.8 1.5-1.1 2.4-1.2l0.4 0.3c-2.3 5.3-5.8 9.2-11.3 11.7-8 3.7-13.5 9.9-15.3 18.6-1 4.9-3.3 8.9-6.3 12.8-4.6 6.1-9.6 11.9-13.4 18.5-4.9-1.1-6.2-5-6.7-9.2-0.4-3.7-0.4-7.4 0.1-11.1z"/>
		<path class="s3" d="m581.9 510.1c-4-2.9-8.2-2.2-12.5-1.1-2.3 0.6-4.4 1.8-6.9 1.4 6.9-4.4 14.2-4.6 21.7-1.8-0.7 0.7-1.3 1.4-2.3 1.5z"/>
		<path class="s4" d="m562.5 510.4c-0.3 2.4-2.3 2.7-4 3.3-4.4 1.6-8.8 2.7-13.6 2.3-2.8-0.2-5.6 0-8.4 0 1.3-2.6 3.8-2 5.9-1.9 7.1 0.4 13.8-0.7 20.1-3.7z"/>
		<path class="s5" d="m534.5 518.2c-1.1 1.7-2.6 2.5-4.6 2.3 1-1.7 2.6-2.5 4.6-2.3z"/>
		<path class="s6" d="m535.6 517.1q-0.6 0.6-1.2 1.2 0.1-1.1 1.2-1.2z"/>
		<path class="s7" d="m232 341.7c-1.6-2-1-4.8-2.2-6.9-0.1-1.4-0.3-2.9 1.7-3.1 5.1 8.9 10.8 17.4 17.6 25.1 12.2 13.7 26.9 23.5 44.3 29.1 3.7 1.2 7.4 2 11.3 2.2 14.1 0.7 27.9 2.5 40.6 9.2 10.1 5.3 19 12.1 26.1 21.2-1.8 0.2-3.2-0.5-4.6-1.6-7-5.2-15-8.1-23.4-10.2-15.3-3.9-31-6.3-46.5-9.7-15.8-3.4-29.9-10.3-41.8-21.6-9.7-9.1-16.1-20.2-21.4-32.1-0.3-0.9 0.1-2.6-1.7-1.6z"/>
		<path class="s2" d="m379.3 430.4c-6.5-6.4-13.5-12-21.7-16-1.3-1.3-2.8-1.5-4.5-1.2-11.1-6.6-23.5-8.5-35.9-10.1-8.7-1.2-17.5-1.6-26.2-3-28.5-4.6-46.1-22-56.1-48.1-1.3-3.3-2.4-6.7-2.9-10.2 1.8-1 1.4 0.7 1.7 1.4 5.3 11.9 11.8 23 21.4 32.1 11.9 11.2 26 18.2 41.8 21.6 15.5 3.3 31.1 5.7 46.5 9.7 8.4 2.2 16.4 5 23.4 10.2 1.4 1 2.8 1.8 4.6 1.6 3.5 3.3 6.5 7.1 7.9 12z"/>
		<path class="s8" d="m282.7 428.4c4 0.1 7.5 2.2 11.3 3.3 1.5 0.4 2.5 1.5 2.7 3.1-2.1 1.4-0.7 2.5 0.3 3.5 6 5.9 9 13.4 11.5 21.3 2.9 9.2 4.3 18.3 3 27.8-2.4-0.4-4.6-1.1-6-3.3 0.4-9.1-1.1-18-3-26.8-2.6-12.3-8.4-22.6-19.8-28.9z"/>
		<path class="s9" d="m335 530.3c-3.2-2.5-3.5-6.4-5-9.8-1.6-3.6-2.7-7.4-3.9-11.2-0.4-1.4-1.2-2.1-2.7-2 0-2.3-0.2-4.7 0.1-6.9 0.5-3.8-0.9-6.5-4-8.5-0.4-2.9-1-5.8-1.2-8.7-0.5-7.4-1.5-14.6-5.4-21.1-1.9-3.3-3.2-6.8-3.7-10.7-0.5-4.1-2.2-7.6-5.5-10.3-1.6-1.3-3.5-2.5-3.5-5 1.9-0.4 3.3 0.7 4.6 1.7 13.4 10.1 21.6 23.2 22.2 40.3 0.2 4.9 0.1 9.8-0.3 14.6-0.9 10.4 1.4 20.2 5.7 29.6 1.3 2.7 2.6 5.2 2.6 8z"/>
		<path class="s2" d="m300.4 436.2c0 2.5 1.9 3.7 3.5 5 3.3 2.7 5 6.2 5.5 10.3 0.4 3.8 1.7 7.4 3.7 10.7 3.9 6.5 4.9 13.7 5.4 21.1 0.2 2.9 0.8 5.8 1.2 8.7-3.4-0.2-5.7-2.5-8.1-4.6 1.3-9.5 0-18.7-3-27.8-2.5-7.9-5.5-15.3-11.5-21.3-1-1-2.4-2.1-0.3-3.5 0.4 0.1 0.7 0.1 1.1 0.2 0.5 0.9 1.4 1.3 2.5 1.2z"/>
		<path fill-rule="evenodd" class="s0" d="m256.3 455.2l88.1 49.3 1.3 20.8-1.3 8.4-49.6-0.2-20.7-33.4z"/>
		<path class="s0" d="m277.3 427.5c0 0 41.6 7.3 49 42.5 7.4 35.2 17.7-6.6 17.7-6.6l-7-24-29.4-21.7h-17.6z"/>
		<path class="s0" d="m380.2 431c0 0-14.7-18.9-49.4-25.9-34.7-6.9-34.3 9.4-34.3 9.4l30.7 13.9 23.1 7.8z"/>
		<path class="s10" d="m435.6 205.1c0.8-2.9-1.7-3.4-3.4-4.4-11.6-6.6-23.2-13.2-34.7-19.8-50.9-28.9-101.8-57.7-152.6-86.6-1.2-0.7-2.5-1.5-3.7-2.2 0.2-2.3 2.2-2.5 3.5-3.3 42.6-24.9 85.1-49.9 127.9-74.6 15.3-8.9 31.6-8.8 47.3-0.9 16 8.1 31.6 16.8 47.2 25.6 55.4 31 110.8 62.2 166.1 93.3 4.9 2.8 9.9 5.3 12.7 10.6 3.6 6.8 2.8 12.3-3.3 17-2.5 1.9-5.2 3.4-7.9 5-11.7 6.8-23.5 13.4-35.1 20.4-16.6 10-33.5 9.8-50.6 1.6-10.5-5.1-20-12-30-17.9-44-25.7-88-51.6-132-77.3-7.3-4.3-12.1-4.8-18.3-2.5-0.4 2 1.3 2.4 2.4 3.1 25.8 15.3 51.6 30.5 77.3 45.9 2.9 1.7 6.4 2.7 8.8 5.4-1.7 0.6-3.1 1.3-2.8 3.5 0.3 1.8 0.5 3.7 1.1 5.5 2.6 7.5 4.3 15.1 4.9 23 1.2 16.2-7.1 28.4-24.8 29.6z"/>
	</g>
</svg>