<?xml version="1.0" encoding="utf-8"?>
<!-- Generator: Adobe Illustrator 26.3.1, SVG Export Plug-In . SVG Version: 6.00 Build 0)  -->
<svg version="1.1" id="Layer_1" xmlns="http://www.w3.org/2000/svg" xmlns:xlink="http://www.w3.org/1999/xlink" x="0px" y="0px"
	 viewBox="0 0 792 612" style="enable-background:new 0 0 792 612;" xml:space="preserve">
<style type="text/css">
	.st0{fill:#1E1E1E;}
	.st1{fill:url(#SVGID_1_);}
	.st2{fill:#684800;}
	.st3{fill:url(#SVGID_00000049916842399624848060000015571863310920430782_);}
	.st4{fill:url(#SVGID_00000015353002649968407180000007656196757005171328_);}
	.st5{fill:url(#SVGID_00000034070531256873158580000009046389307567381408_);}
	.st6{fill:url(#SVGID_00000063608903617445421130000009039198855519706498_);}
	.st7{fill:url(#SVGID_00000089554046473914680950000016656996453719439276_);}
	.st8{fill:url(#SVGID_00000049922690764795497030000009977418318017023395_);}
	.st9{fill:url(#SVGID_00000024692267397518837260000010981057798412990134_);}
	.st10{fill:url(#SVGID_00000152248074565875008720000003119902093485155213_);}
</style>
<g>
	<g>
		<path class="st0" d="M437.2,203.7c-66-37.5-131-74.4-196.7-111.7c1.7-1.3,2.9-2.3,4.2-3.1C287.1,64,329.5,39,372.1,14.4
			c15.1-8.7,31.1-9.1,46.8-1.4c11.4,5.6,22.5,11.8,33.7,18C514.1,65.5,575.5,100,637,134.5c4,2.2,7.1,5,9.2,9.1
			c3.3,6.4,2.3,11.6-3.3,16.1c-1.6,1.3-3.4,2.3-5.2,3.4c-13.1,7.7-26.3,15.3-39.4,23.1c-12.4,7.4-25.6,8.5-39.1,4.7
			c-6.1-1.7-12-4.7-17.6-7.9c-51.8-30.4-103.5-61-155.2-91.5c-4.4-2.6-9.2-4-14.3-3.6c-1.4,0.1-2.7,0.7-5.5,1.6
			c11.5,7.8,22.7,13.7,33.4,20.3c10.7,6.5,21.5,12.9,32.3,19.2c11,6.5,22,12.8,32.9,19.3c10.8,6.3,21.5,12.8,32.3,19.1
			c10.9,6.5,21.9,13,32.8,19.5c10.7,6.4,21.4,12.8,32.8,19.5c-2.1,1.4-3.6,2.5-5.1,3.4c-39.3,22.9-78.3,46.2-117.8,68.7
			c-28.3,16.1-57.2,16.4-85.8,0.1c-63.2-36.2-126.3-72.4-189.4-108.7c-3.9-2.3-7.9-4.8-11.1-8c-7.7-7.4-7-14.8,1.8-20.8
			c3.1-2.1,6.4-3.9,9.7-5.8c13.9-8.1,27.9-16,41.5-24.4c11.3-6.9,23.2-8.1,35.5-4.6c6.3,1.8,12.5,4.7,18.3,7.9
			c52.4,29.4,104.7,58.9,157,88.4c4.7,2.7,9.7,3.8,15,3.1C433.8,205.4,434.8,204.7,437.2,203.7z"/>
		<path class="st0" d="M643.5,320.1c2.3,0.7,3.8,1.2,5.4,1.7c9.2,3,14,9.4,14.8,18.9c0.1,1.9,0.1,3.8,0.1,5.6
			c0,22.1,0.2,44.2,0,66.4c-0.4,33.9-15.2,59.4-44.9,76.3c-62.5,35.6-124.8,71.6-187.3,107.3c-4.3,2.5-8.9,4.7-13.7,6
			c-10.1,2.7-15.7-1.9-16.2-12.2c-0.1-2.1-0.1-4.2-0.1-6.3c0-80.5,0.1-161.1-0.1-241.6c-0.1-20.2,8.2-35.5,25.2-45.9
			c31-18.8,62.2-37.4,93.5-55.8c39.2-23.1,78.5-45.9,117.8-68.9c4.5-2.6,9-4.3,14.2-3.8c6.4,0.7,10.3,4.3,11.2,10.7
			c0.3,2.3,0.3,4.6,0.3,6.9c0,27.1,0,54.2,0,81.4c0,10.8-1.9,21.2-5.5,31.3C655.5,306.6,650.5,313.7,643.5,320.1z M520.2,449.6
			c-2.6,17.1-6.5,33.3-8.9,49.8c0.4,0.1,0.8,0.2,1.2,0.4c7.9-13.4,15.7-26.8,23.7-40.4c8.6,3.9,15.8,9.4,24.8,13.7
			c-0.4-2.5-0.6-4-0.9-5.3c-2.4-10.4-4.6-20.7-7.2-31c-0.8-3.1-0.4-5.5,1.2-8.2c6.2-10.4,12.3-20.8,18.4-31.3c1-1.7,1.7-3.5,2.6-5.2
			c-0.3-0.3-0.6-0.5-1-0.8c-9.2,5-18.5,9.9-28.1,15.1c-3.6-13.4-5.8-26.3-9.9-38.7c-0.9,2.1-1.5,4.1-1.8,6.1
			c-2.4,12.9-5,25.8-7.1,38.7c-0.6,3.5-2.1,5.5-5.2,7.1c-7.8,4-15.4,8.2-23.1,12.4c-1.3,0.7-2.5,1.8-4.2,3
			C503.8,440,511.8,444.7,520.2,449.6z M561.1,358.8c-0.4-2.9-0.6-4.3-0.9-5.7c-2.4-10.4-4.6-20.8-7.2-31.1
			c-0.8-3.1-0.4-5.5,1.3-8.2c6.3-10.5,12.5-21.2,18.7-31.8c0.9-1.5,1.5-3.1,2.2-4.7c-0.3-0.3-0.6-0.5-0.8-0.8
			c-9.3,5-18.5,10-28.2,15.2c-3.1-13.4-6.2-26.3-9.2-39.1c-1.5,2.3-2,4.5-2.5,6.8c-2.4,12.7-4.9,25.4-7,38.1
			c-0.6,3.7-2.3,5.8-5.5,7.5c-7.4,3.8-14.7,7.9-22,11.8c-1.5,0.8-3,1.9-5.1,3.3c9,5.2,17.2,10.1,25.6,15
			c-3.1,16.8-6.1,33.2-9.1,49.6c0.4,0.1,0.9,0.3,1.3,0.4c7.9-13.4,15.7-26.8,23.8-40.7C544.5,349.2,552.2,353.7,561.1,358.8z"/>
		<path class="st0" d="M390.6,388.7c-62.7-34.6-124.4-68.5-186.9-102.9c-0.3,2.7-0.6,4.5-0.6,6.3c0.1,42.8,0.2,85.5,0.1,128.3
			c0,3.5,1,5.7,4.2,7.4c33.1,18.5,66.2,37.1,99.3,55.7c1.2,0.7,2.6,1.2,4.4,2c0.1-2.1,0.4-3.7,0.4-5.3c-0.2-10.3-1.7-20.3-5.5-30
			c-4.8-12.2-13.4-19.8-26.5-22.2c-4.9-0.9-9.8-2.1-14.5-3.8c-18.2-6.8-29.1-20.4-34.2-38.8c-4.9-17.6-4.3-35.5-1-53.3
			c0.1-0.4,0.4-0.7,1-1.7c1.2,1.9,2.2,3.6,3.1,5.2c11,18.7,25,34.3,44.7,44.3c9.8,5,20.1,8,31.1,8.7c10.2,0.7,20.3,2.2,29.9,6.2
			c22.9,9.6,37.9,27,46.9,49.5c2.8,7.2,3.8,15.5,3.9,23.3c0.4,40.1,0.2,80.1,0.1,120.2c0,13.5-6.7,18.2-19.3,13.9
			c-3.3-1.1-6.5-2.8-9.6-4.6c-63.3-36.3-126.6-72.6-189.9-109c-29-16.7-43.1-42.4-43.4-75.3c-0.4-48.4-0.1-96.8-0.1-145.2
			c0-26.9,0-53.8,0-80.7c0-2.9,0.1-5.9,0.6-8.7c1.1-6.1,4.9-9.4,11.1-10c5-0.5,9.4,1,13.7,3.5c37.1,21.7,74.2,43.3,111.3,65.1
			c31.8,18.7,63.5,37.7,95.2,56.5c2.5,1.5,5,3,7.4,4.7c15.2,10.4,23.2,24.6,23.1,43.3C390.5,356.4,390.6,371.8,390.6,388.7z"/>
		<path class="st0" d="M539.8,423.2c3.3-1.5,6-2.8,9.4-4.4c-2.6,5-5.9,9-6.7,13.4c-0.7,4.2,1.2,8.8,2.1,14.1
			c-3.1-1.5-5.6-2.6-8.4-3.9c-2.4,3.8-4.7,7.4-7,11.1c-0.3-0.1-0.6-0.2-0.9-0.3c0.8-4.6,1.5-9.2,2.3-14.1c-2.5-1.7-5-3.5-8-5.6
			c1.7-1.1,2.9-2.3,4.3-2.9c4.9-1.8,7-5.3,7.5-10.3c0.2-2.7,1-5.3,2.4-8.1C537.8,415.6,538.7,419.1,539.8,423.2z"/>
		<path class="st0" d="M544.7,332c-3.1-1.5-5.5-2.7-8.4-4.2c-2.4,3.8-4.7,7.6-7.1,11.3c-0.3-0.1-0.6-0.2-0.9-0.3
			c0.8-4.6,1.5-9.2,2.4-14.2c-2.6-1.8-5.2-3.6-8.3-5.7c2-1.2,3.4-2.5,5.1-3.1c4.6-1.6,6.3-4.9,6.8-9.4c0.3-3,1.1-6,2-10.5
			c1.4,5,2.4,8.5,3.6,12.7c3-1.5,5.7-2.8,8.4-4.1c0.3,0.2,0.6,0.4,0.9,0.6c-1.5,2.7-2.9,5.6-4.7,8.2c-2.2,3.1-2.9,6.2-1.5,9.9
			C543.9,325.8,544,328.6,544.7,332z"/>
	</g>
	
		<linearGradient id="SVGID_1_" gradientUnits="userSpaceOnUse" x1="401.6357" y1="56.2536" x2="529.9582" y2="56.2536" gradientTransform="matrix(1 0 0 -1 0 614)">
		<stop  offset="5.028368e-03" style="stop-color:#AA8900"/>
		<stop  offset="0.4698" style="stop-color:#D4A600"/>
		<stop  offset="0.9663" style="stop-color:#986300"/>
		<stop  offset="0.9955" style="stop-color:#945F00"/>
	</linearGradient>
	<path class="st1" d="M530,520.5c-2.1,4.3-6.3,5.3-10.2,5.4c-5.7,0.1-11,1.7-16.4,3c-2.8,0.7-5.5,0.7-8.3,0
		c-5.1-1.2-10.1-2.6-15.3-3c-5.7-0.4-10,2-12.5,6.8c-7.6,14.7-17,28.5-23.5,43.8c-2.4,5.7-5.7,10.9-7.2,16.9
		c-5.2,3.8-10.7,7.2-16.7,9.4c-3.6,1.3-7.3,2.6-11.2,0.8c3.9-6.6,8.9-12.4,13.4-18.5c2.9-3.9,5.3-7.9,6.3-12.8
		c1.8-8.8,7.3-15,15.3-18.6c5.4-2.5,9-6.4,11.3-11.7c0.8-0.5,1.1-1.3,1.1-2.2c1.4-0.2,2.1-1,2.1-2.4c0.1-0.1,0.3-0.1,0.4-0.2
		c0.1-0.1,0-0.2,0.1-0.3c-0.1,0.2-0.3,0.4-0.5,0.5c-1.5,0-2.2,0.8-2.4,2.2c-0.9,0.4-1.2,1.2-1.3,2.1c-1,0.1-1.9,0.4-2.4,1.2
		c-4.4,6.1-11,8.6-18,10.5c-3,0.8-5.3,2.4-7.5,4.6c-8.1,8.5-16.4,16.9-24.6,25.3c-0.5-13.5-0.4-27,0-40.5c5.8,0.1,11.5,1.2,17.2,2
		c10,1.5,19.7,0.4,29-3.7c5-2.2,8.4-6.3,9.7-11.7c2-8.3,7.5-13.4,14.7-17.3c2.9-1.6,5.6-1.4,8.5-0.2c7.4,3,15,5.8,22.3,9
		c3.6,1.6,7.1,2.1,10.8,2C519.5,522.6,525,523.4,530,520.5z"/>
	<path class="st2" d="M402,583.3c8.2-8.4,16.4-16.8,24.6-25.3c2.1-2.2,4.5-3.9,7.5-4.6c7-1.8,13.5-4.3,18-10.5
		c0.6-0.8,1.5-1.1,2.4-1.2l0.4,0.3c-2.3,5.3-5.8,9.2-11.3,11.7c-8,3.7-13.5,9.9-15.3,18.6c-1,4.9-3.3,8.9-6.3,12.8
		c-4.6,6.1-9.6,11.9-13.4,18.5c-4.9-1.1-6.2-5-6.7-9.2C401.5,590.7,401.5,587,402,583.3z"/>
	
		<linearGradient id="SVGID_00000051381855600682095750000000655522644898135171_" gradientUnits="userSpaceOnUse" x1="562.4748" y1="105.3696" x2="584.1649" y2="105.3696" gradientTransform="matrix(1 0 0 -1 0 614)">
		<stop  offset="5.028368e-03" style="stop-color:#AA8900"/>
		<stop  offset="0.4698" style="stop-color:#D4A600"/>
		<stop  offset="0.9663" style="stop-color:#986300"/>
		<stop  offset="0.9955" style="stop-color:#945F00"/>
	</linearGradient>
	<path style="fill:url(#SVGID_00000051381855600682095750000000655522644898135171_);" d="M581.9,510.1c-4-2.9-8.2-2.2-12.5-1.1
		c-2.3,0.6-4.4,1.8-6.9,1.4c6.9-4.4,14.2-4.6,21.7-1.8C583.5,509.3,582.9,510,581.9,510.1z"/>
	
		<linearGradient id="SVGID_00000116203470751531290300000011096779846436112315_" gradientUnits="userSpaceOnUse" x1="536.655" y1="100.7891" x2="562.5306" y2="100.7891" gradientTransform="matrix(1 0 0 -1 0 614)">
		<stop  offset="5.028368e-03" style="stop-color:#AA8900"/>
		<stop  offset="0.4698" style="stop-color:#D4A600"/>
		<stop  offset="0.9663" style="stop-color:#986300"/>
		<stop  offset="0.9955" style="stop-color:#945F00"/>
	</linearGradient>
	<path style="fill:url(#SVGID_00000116203470751531290300000011096779846436112315_);" d="M562.5,510.4c-0.3,2.4-2.3,2.7-4,3.3
		c-4.4,1.6-8.8,2.7-13.6,2.3c-2.8-0.2-5.6,0-8.4,0c1.3-2.6,3.8-2,5.9-1.9C549.5,514.5,556.2,513.4,562.5,510.4z"/>
	
		<linearGradient id="SVGID_00000107549800528847870810000001609055113507430064_" gradientUnits="userSpaceOnUse" x1="529.9024" y1="94.6258" x2="534.46" y2="94.6258" gradientTransform="matrix(1 0 0 -1 0 614)">
		<stop  offset="5.028368e-03" style="stop-color:#AA8900"/>
		<stop  offset="0.4698" style="stop-color:#D4A600"/>
		<stop  offset="0.9663" style="stop-color:#986300"/>
		<stop  offset="0.9955" style="stop-color:#945F00"/>
	</linearGradient>
	<path style="fill:url(#SVGID_00000107549800528847870810000001609055113507430064_);" d="M534.5,518.2c-1.1,1.7-2.6,2.5-4.6,2.3
		C530.9,518.8,532.5,518,534.5,518.2z"/>
	
		<linearGradient id="SVGID_00000007412885973654140540000018120028652862814100_" gradientUnits="userSpaceOnUse" x1="534.4041" y1="96.302" x2="535.5844" y2="96.302" gradientTransform="matrix(1 0 0 -1 0 614)">
		<stop  offset="5.028368e-03" style="stop-color:#AA8900"/>
		<stop  offset="0.4698" style="stop-color:#D4A600"/>
		<stop  offset="0.9663" style="stop-color:#986300"/>
		<stop  offset="0.9955" style="stop-color:#945F00"/>
	</linearGradient>
	<path style="fill:url(#SVGID_00000007412885973654140540000018120028652862814100_);" d="M535.6,517.1c-0.4,0.4-0.8,0.8-1.2,1.2
		C534.5,517.6,534.9,517.2,535.6,517.1z"/>
	
		<linearGradient id="SVGID_00000122695686353719736100000014574925874090502575_" gradientUnits="userSpaceOnUse" x1="229.6788" y1="239.017" x2="371.3933" y2="239.017" gradientTransform="matrix(1 0 0 -1 0 614)">
		<stop  offset="5.028368e-03" style="stop-color:#AA8900"/>
		<stop  offset="0.4698" style="stop-color:#D4A600"/>
		<stop  offset="0.9663" style="stop-color:#986300"/>
		<stop  offset="0.9955" style="stop-color:#945F00"/>
	</linearGradient>
	<path style="fill:url(#SVGID_00000122695686353719736100000014574925874090502575_);" d="M232,341.7c-1.6-2-1-4.8-2.2-6.9
		c-0.1-1.4-0.3-2.9,1.7-3.1c5.1,8.9,10.8,17.4,17.6,25.1c12.2,13.7,26.9,23.5,44.3,29.1c3.7,1.2,7.4,2,11.3,2.2
		c14.1,0.7,27.9,2.5,40.6,9.2c10.1,5.3,19,12.1,26.1,21.2c-1.8,0.2-3.2-0.5-4.6-1.6c-7-5.2-15-8.1-23.4-10.2
		c-15.3-3.9-31-6.3-46.5-9.7c-15.8-3.4-29.9-10.3-41.8-21.6c-9.7-9.1-16.1-20.2-21.4-32.1C233.4,342.4,233.8,340.7,232,341.7z"/>
	<path class="st2" d="M379.3,430.4c-6.5-6.4-13.5-12-21.7-16c-1.3-1.3-2.8-1.5-4.5-1.2c-11.1-6.6-23.5-8.5-35.9-10.1
		c-8.7-1.2-17.5-1.6-26.2-3c-28.5-4.6-46.1-22-56.1-48.1c-1.3-3.3-2.4-6.7-2.9-10.2c1.8-1,1.4,0.7,1.7,1.4
		c5.3,11.9,11.8,23,21.4,32.1c11.9,11.2,26,18.2,41.8,21.6c15.5,3.3,31.1,5.7,46.5,9.7c8.4,2.2,16.4,5,23.4,10.2
		c1.4,1,2.8,1.8,4.6,1.6C374.9,421.7,377.9,425.5,379.3,430.4z"/>
	
		<linearGradient id="SVGID_00000107550367684194783480000008786992801755440273_" gradientUnits="userSpaceOnUse" x1="282.7167" y1="156.1452" x2="312.0488" y2="156.1452" gradientTransform="matrix(1 0 0 -1 0 614)">
		<stop  offset="5.028368e-03" style="stop-color:#AA8900"/>
		<stop  offset="0.4698" style="stop-color:#D4A600"/>
		<stop  offset="0.9663" style="stop-color:#986300"/>
		<stop  offset="0.9955" style="stop-color:#945F00"/>
	</linearGradient>
	<path style="fill:url(#SVGID_00000107550367684194783480000008786992801755440273_);" d="M282.7,428.4c4,0.1,7.5,2.2,11.3,3.3
		c1.5,0.4,2.5,1.5,2.7,3.1c-2.1,1.4-0.7,2.5,0.3,3.5c6,5.9,9,13.4,11.5,21.3c2.9,9.2,4.3,18.3,3,27.8c-2.4-0.4-4.6-1.1-6-3.3
		c0.4-9.1-1.1-18-3-26.8C299.9,445,294.1,434.7,282.7,428.4z"/>
	
		<linearGradient id="SVGID_00000014626227954263529540000001302997193243881658_" gradientUnits="userSpaceOnUse" x1="300.3886" y1="130.7384" x2="334.9517" y2="130.7384" gradientTransform="matrix(1 0 0 -1 0 614)">
		<stop  offset="5.028368e-03" style="stop-color:#AA8900"/>
		<stop  offset="0.4698" style="stop-color:#D4A600"/>
		<stop  offset="0.9663" style="stop-color:#986300"/>
		<stop  offset="0.9955" style="stop-color:#945F00"/>
	</linearGradient>
	<path style="fill:url(#SVGID_00000014626227954263529540000001302997193243881658_);" d="M335,530.3c-3.2-2.5-3.5-6.4-5-9.8
		c-1.6-3.6-2.7-7.4-3.9-11.2c-0.4-1.4-1.2-2.1-2.7-2c0-2.3-0.2-4.7,0.1-6.9c0.5-3.8-0.9-6.5-4-8.5c-0.4-2.9-1-5.8-1.2-8.7
		c-0.5-7.4-1.5-14.6-5.4-21.1c-1.9-3.3-3.2-6.8-3.7-10.7c-0.5-4.1-2.2-7.6-5.5-10.3c-1.6-1.3-3.5-2.5-3.5-5c1.9-0.4,3.3,0.7,4.6,1.7
		c13.4,10.1,21.6,23.2,22.2,40.3c0.2,4.9,0.1,9.8-0.3,14.6c-0.9,10.4,1.4,20.2,5.7,29.6C333.7,525,335,527.5,335,530.3z"/>
	<path class="st2" d="M300.4,436.2c0,2.5,1.9,3.7,3.5,5c3.3,2.7,5,6.2,5.5,10.3c0.4,3.8,1.7,7.4,3.7,10.7c3.9,6.5,4.9,13.7,5.4,21.1
		c0.2,2.9,0.8,5.8,1.2,8.7c-3.4-0.2-5.7-2.5-8.1-4.6c1.3-9.5,0-18.7-3-27.8c-2.5-7.9-5.5-15.3-11.5-21.3c-1-1-2.4-2.1-0.3-3.5
		c0.4,0.1,0.7,0.1,1.1,0.2C298.4,435.9,299.3,436.3,300.4,436.2L300.4,436.2z"/>
	<polygon class="st0" points="256.3,455.2 344.4,504.5 345.7,525.3 344.4,533.7 294.8,533.5 274.1,500.1 	"/>
	<path class="st0" d="M277.3,427.5c0,0,41.6,7.3,49,42.5s17.7-6.6,17.7-6.6l-7-24l-29.4-21.7H290L277.3,427.5z"/>
	<path class="st0" d="M380.2,431c0,0-14.7-18.9-49.4-25.9c-34.7-6.9-34.3,9.4-34.3,9.4l30.7,13.9l23.1,7.8L380.2,431z"/>
	
		<linearGradient id="SVGID_00000020358384026282414460000000235160104662934948_" gradientUnits="userSpaceOnUse" x1="241.1595" y1="507.6864" x2="648.0825" y2="507.6864" gradientTransform="matrix(1 0 0 -1 0 614)">
		<stop  offset="5.028368e-03" style="stop-color:#AA8900"/>
		<stop  offset="0.4698" style="stop-color:#D4A600"/>
		<stop  offset="0.9663" style="stop-color:#986300"/>
		<stop  offset="0.9955" style="stop-color:#945F00"/>
	</linearGradient>
	<path style="fill:url(#SVGID_00000020358384026282414460000000235160104662934948_);" d="M435.6,205.1c0.8-2.9-1.7-3.4-3.4-4.4
		c-11.6-6.6-23.2-13.2-34.7-19.8c-50.9-28.9-101.8-57.7-152.6-86.6c-1.2-0.7-2.5-1.5-3.7-2.2c0.2-2.3,2.2-2.5,3.5-3.3
		c42.6-24.9,85.1-49.9,127.9-74.6c15.3-8.9,31.6-8.8,47.3-0.9c16,8.1,31.6,16.8,47.2,25.6c55.4,31,110.8,62.2,166.1,93.3
		c4.9,2.8,9.9,5.3,12.7,10.6c3.6,6.8,2.8,12.3-3.3,17c-2.5,1.9-5.2,3.4-7.9,5c-11.7,6.8-23.5,13.4-35.1,20.4
		c-16.6,10-33.5,9.8-50.6,1.6c-10.5-5.1-20-12-30-17.9c-44-25.7-88-51.6-132-77.3c-7.3-4.3-12.1-4.8-18.3-2.5
		c-0.4,2,1.3,2.4,2.4,3.1c25.8,15.3,51.6,30.5,77.3,45.9c2.9,1.7,6.4,2.7,8.8,5.4c-1.7,0.6-3.1,1.3-2.8,3.5c0.3,1.8,0.5,3.7,1.1,5.5
		c2.6,7.5,4.3,15.1,4.9,23C461.6,191.7,453.3,203.9,435.6,205.1z"/>
</g>
</svg>
